<svg width="128" height="150" xmlns="http://www.w3.org/2000/svg" version="1.0" preserveAspectRatio="xMidYMid meet">
 <g>
  <title>Layer 1</title>
  <path d="m28.7,95.5c-2.5,2.4 -2.9,5.2 -1.3,8.2c2.1,3.7 5.2,7.3 6.4,7.3c1.6,0 6.2,5.9 6.2,7.9c0,1 -0.9,3 -2.1,4.5c-3.3,4.3 -8.8,3.1 -10.7,-2.4c-1,-2.8 -4.2,-4.3 -4.2,-1.9c0,0.5 0.5,0.7 1,0.4c0.6,-0.3 1.3,0.2 1.7,1.2c2.2,6.2 8.5,8.2 12.8,3.8c4.4,-4.4 2.8,-9.4 -5.4,-16.3c-4.2,-3.6 -5.1,-4.9 -5.1,-7.6c0,-3.9 1.5,-5.6 5,-5.6c3,0 6,2.7 6,5.3c0,0.9 0.7,1.7 1.5,1.7c0.8,0 1.5,-0.5 1.5,-1.2c0,-0.6 -0.3,-0.8 -0.6,-0.5c-0.4,0.4 -1.4,-0.8 -2.3,-2.6c-1.3,-2.6 -2.3,-3.3 -5.2,-3.5c-2.3,-0.2 -4.2,0.3 -5.2,1.3z" id="svg_4"/>
  <path d="m48.7,95.8c-1.3,1.4 -1.7,3.9 -1.7,10.5c0,5.3 -0.4,8.7 -1,8.7c-0.7,0 -0.7,0.6 0,1.9c0.5,1.1 1,3.1 1,4.4c0,5.2 7.1,7.6 11,3.7c1.1,-1.1 2,-3.3 2,-4.8c0,-1.5 0.5,-3.3 1.2,-4c0.9,-0.9 0.9,-1.2 0,-1.2c-0.8,0 -1.2,-2.6 -1.2,-8.8c0,-7.3 -0.3,-9.2 -1.8,-10.5c-2.5,-2.2 -7.5,-2.1 -9.5,0.1zm8.7,0.8c2.4,2.3 2.3,25 -0.1,27.6c-2,2.2 -5.1,2.3 -7.5,0.1c-1.6,-1.4 -1.8,-3.3 -1.8,-14.4c0,-11.1 0.2,-12.9 1.8,-13.8c2.5,-1.5 5.8,-1.3 7.6,0.5z" id="svg_5"/>
  <path d="m65,95c0,0.6 0.5,0.8 1,0.5c0.7,-0.5 1,3.6 0.9,12.5c-0.1,11.7 0.1,13.5 1.8,15.8c2.8,3.7 8.5,4.2 10.7,1c0.9,-1.2 1.6,-2.9 1.6,-3.8c0,-0.8 -0.9,0 -2,1.8c-2.1,3.4 -5.3,4.2 -8.3,2c-1.4,-1.1 -1.7,-3.6 -1.9,-15.8c-0.3,-12.9 -0.5,-14.5 -2,-14.8c-1,-0.2 -1.8,0.2 -1.8,0.8z" id="svg_6"/>
  <path d="m86.7,109.7c0.2,11.4 -0.1,15.9 -1,16.5c-0.7,0.4 1.4,0.8 4.6,0.8c9.5,0 11.1,-2.8 10.5,-18.8c-0.4,-12.4 -1.5,-14.2 -9.2,-14.2l-5.1,0l0.2,15.7zm10.5,-13c1.6,1.4 1.8,3.3 1.8,13.9c0,11.6 -0.1,12.4 -2.2,13.8c-1.2,0.9 -3.7,1.6 -5.5,1.6l-3.3,0l0,-15.5l0,-15.5l3.7,0c2,0 4.5,0.7 5.5,1.7z" id="svg_7"/>
 </g>

</svg>