<svg width="128" height="150" xmlns="http://www.w3.org/2000/svg" preserveAspectRatio="xMidYMid meet" version="1.0">
 <g>
  <title>Layer 1</title>
  <g fill="#7B572D" id="svg_1">
   <path fill="#d1252e" id="svg_2" d="m96.1,14.4c-0.9,1.1 -1,2 -0.1,3.5c1.3,2.5 4.4,2.3 -27.8,2.1l-25.2,-0.1l0.2,31.8l0.3,31.8l9.2,3.3l9.1,3.4l9.6,-3.7l9.6,-3.7l0,-30.4l0,-30.4l7.8,-0.2c4.2,-0.1 9.4,-0.2 11.5,-0.1c3.9,0.2 5.1,-1.1 1.7,-2c-1.3,-0.3 -1.8,-1 -1.4,-2.1c0.6,-1.6 -1.1,-4.6 -2.6,-4.6c-0.4,0 -1.3,0.6 -1.9,1.4zm2.9,2.7c0,1.1 -0.4,1.7 -1,1.4c-0.5,-0.3 -1,-1.3 -1,-2.1c0,-0.8 0.5,-1.4 1,-1.4c0.6,0 1,0.9 1,2.1zm-31.9,15.9c1,0.6 2.6,2.4 3.4,4c0.9,1.7 2.2,3 3,3c1.8,0 1.9,1.2 0.3,2.8c-2,2 -3.8,1.3 -4.4,-1.7c-1.7,-8.5 -13.4,-8.3 -13.4,0.3c0,2.5 1.3,4.3 7.4,10.1c10.3,9.7 11.5,12.9 7.7,19.1c-4.2,6.9 -14.3,6.3 -17.7,-1c-1.1,-2.1 -2.2,-3.2 -3,-2.9c-1.7,0.6 -1.8,-1.9 -0.2,-3.5c1.7,-1.7 4.8,0.4 4.8,3.3c0,2.8 4.3,6.5 7.5,6.5c3.8,0 7.5,-3.7 7.5,-7.5c0,-3.9 -4,-9.2 -7.3,-9.7c-1.4,-0.2 -2.1,-0.9 -1.9,-2c0.1,-0.9 -0.6,-2.2 -1.7,-2.7c-3.5,-1.9 -6.4,-7.8 -5.7,-11.6c1.2,-6 8.2,-9.4 13.7,-6.5z"/>
   <path fill="#d1252e" id="svg_3" d="m27,15.8c0,2.6 -1.1,3.4 -2.7,2.1c-1,-0.9 -1.3,-0.8 -1.3,0.5c0,0.9 -0.8,1.6 -2,1.6c-1.1,0 -2,0.3 -2,0.7c0,0.5 5.2,0.9 11.5,1.1c7.5,0.2 11.5,-0.1 11.5,-0.8c0,-0.6 -3,-1 -7.5,-1l-7.4,0l0.6,-3c0.3,-1.7 0.3,-3 -0.1,-3c-0.3,0 -0.6,0.8 -0.6,1.8z"/>
  </g>
 </g>

</svg>